# xmcd CD database file
#
# Track frame offsets:
#	150
#	20640
#	50335
#	73060
#	102070
#	123730
#	150062
#	170920
#	195700
#	214690
#
# Disc length: 3217 seconds
#
# Revision: 1
# Processed by: cddbd v1.5.2PL0 Copyright (c) Steve Scherf et al.
# Submitted via: CDex 1.51
#
DISCID=880c8f0a
DTITLE=Brian Stoltz - God, Guns and Money
DYEAR=2005
DGENRE=Blues
TTITLE0=God, Guns and Money Pt1 (Radio Edit)
TTITLE1=War Song
TTITLE2=What Is Real?
TTITLE3=Opposite Sides Of The War
TTITLE4=The Greatest Armed Robbery In History
TTITLE5=Still Some Sense Left In The World
TTITLE6=Downtown
TTITLE7=Chicken Hawk
TTITLE8=This Christmas
TTITLE9=God, Guns and Money Pt2
EXTD=YEAR: 2005
EXTT0=
EXTT1=
EXTT2=
EXTT3=
EXTT4=
EXTT5=
EXTT6=
EXTT7=
EXTT8=
EXTT9=
PLAYORDER=
